<mxfile host="Electron" modified="2023-10-12T15:19:36.069Z" agent="Mozilla/5.0 (Windows NT 10.0; Win64; x64) AppleWebKit/537.36 (KHTML, like Gecko) draw.io/22.0.2 Chrome/114.0.5735.289 Electron/25.8.4 Safari/537.36" etag="-4H9RnEi45ClAsoqmJPn" version="22.0.2" type="device">
  <diagram id="6JIYqF3UHnWxYxFJhkXh" name="PÃ¡gina-1">
    <mxGraphModel dx="880" dy="461" grid="0" gridSize="10" guides="1" tooltips="1" connect="1" arrows="1" fold="1" page="1" pageScale="1" pageWidth="827" pageHeight="1169" background="#4D5766" math="0" shadow="1">
      <root>
        <mxCell id="0" />
        <mxCell id="1" parent="0" />
        <mxCell id="45" value="" style="group" parent="1" vertex="1" connectable="0">
          <mxGeometry x="224" y="278" width="76" height="60" as="geometry" />
        </mxCell>
        <mxCell id="46" value="" style="shape=image;verticalLabelPosition=bottom;labelBackgroundColor=default;verticalAlign=top;aspect=fixed;imageAspect=0;image=data:image/png,iVBORw0KGgoAAAANSUhEUgAAAFgAAABYCAYAAABxlTA0AAAAAXNSR0IArs4c6QAAAARnQU1BAACxjwv8YQUAAAAJcEhZcwAAFxEAABcRAcom8z8AAAikSURBVHhe7ZwJbBRVGMe3pUBrASkUlVMpV6EUQSlCCqhEjbYiIQEUETFyVEAr3hDwquCFVE2EYoTWCBTk8KgmiBfGqDEoRbkE5JByWW9UtJTC5/d/MwPD8na7OzOvu4vvS35pd3bezPS337735r039flSskijiKZZf2nBKtGCFaMFK0YLVowWrBgtWDFasGK0YMVowYrRghUTlYIbX8IX1lv+XqwRVYKb9SFfYiYlpPYlX1IP+T6xRtQIhlxfF2rf4wbasHE7jc57lF+nyfeVgYyPS+cyncWHJI4n26+uiQrBpty0jFzavfcAIU6cOEE33jY1NMnnXkoJLfrSkFH308hx0ykzeyT5knvK961rIi7YytxuOSz3oJBrxQlm+JiHapfcqCc1aXcFVR2tFuUK5y7hMh3l+9Y1ERV8WuaeLtcKSB5Rm2QW3Ljt5VT582+izKw5xbx/J/m+dU3EBFtyOXP3VBwSYhBHzSw8Wm38tCKoZC3YjwDVwosvv04LFr0tft+6fQ/d9eBs8TsCdXLA6kILtgG5cWa1UHFK7qLlq1lKGyoqXiVe7913iHz1utJtEx8TrxGoLqQNnxZsg7tQPfuNoH0HK4UMxOIV75GvQQZLuYhKSt8V2yr2/0gNL8jmbe1ofP5Msc2K2yc/Tr6G3U8dUwu2kdCVcoffLUQgFiNzIfeci1lKOhUveUdsh+DElv2N7hZnrF3yHPQSErrxxZt3e1qwDVH/duL+6gx6lbPVl8RiIdesl88Q3KiXIdLXge6Z/jy9ULRUVB3o+548phYsoSHfbTXgrznGHSAX2wIJxnuQjP2R7Xa5QAuW0BT4DegEEyzK8P7+ZYAWHCK1CQ6EFhwiWrBiIi0YjafV4Mred4IWbMLnzhkxhdp1v150JT2T/L8XzI1mHN/8jJ1cIMpu2rqTUtsMNLLZC8laMAvmu8LSVe+LsojyjdupuVeSdRXBNO5F8Uk9xC27FetZsshkt9WFFsxAIBo3vomxSy7fZEp2k8lasEkzBrftfLfon8muqgvHgnGyZL4gliImGj3h/JPDlW4Ez5hZxMdK9Tt2qFzItKEX5y+j48ePi+OJ6qKtQ8mOBfMnnX3tOCopfYezrswTFrLcHbsqxB/lRvD6b7fR3KKl4sMKm5I36CUuO2/hSvrn3ypxPAQavgsuGmRUJbJrCIRjwb6ONPn+Z8zTex8/saxwBDdhwX/+fcQsrSY+W7eREs7pceZgUzAcC45Pp+FjptL+A5Ui27xkHx/zy683GQPu3MJLz2+H90luPZDLbKadu/fR9/wtcAyX37FzL33DDVx19TFTLdERzubcYfkUl5QJafLrkOFYMPcf66VeRkmt+otM85IkRsiVnTcI9VL7ivURWBnkCC5bD3UsN5AYe64+Zgg+8k8VDcrN4+0dpOcNimPB4NzexldYBRgnlp0zGE24DMo5AWXF7MmFNOm+p4VYBORemTPemVzgSvDZBOpVXxrlP/ScqZZEIzcod4JzuUCJ4EAD49EKrpUl2uUa1YJLucBzwWgAMOPrPx0UrWAsIjGTpj8xz1RrNGhX5nggF3gqWGRCGk3i7hsWkPgSuUuDuk22b7RgCn7ltbeEXKNaMBs03N3JyoSDZ4JNuWPueFRcKGLB4jKKwyQl3pOViRaQBPytw6LBwSPv9SZzLTwRbModnfewqdaIcXcWGNVFOP3GSIBMbcKNHG6Fcb1eVmuuBZtyb817xNRqRMhre6MJFd80V4ItubZqARGTclXhWLAkc7H0dOjN9/H2tkanvZEb+GZDdt5giJsU2bE8wGl2OxJsyrU3aFVV1TQ2f6aYfsHIlluSMQYrO3cA4rgebcRlZMfyAtxKO5IctmA+CaZX8qbMMtUagYGRXXv2U+VPv4phQ7fgQRgxHhFKJnOGQe6Wbbulx/KCy9F1QyMoO38wwhbMNw+JKb1py/Y9plo1gQ8KAz+hCkaW/XH4L7O09zH4JnTfusjPHwxHVQRncOsOV9Fmzhgr0EF/oaiUZheWUCH/LJzngMJXafN3u8TxMGwZrmBkGgID7oW4Dtk5HNIla5izZ/ccCUY/MT6dWrYfRJtMIZhewSyAaOAEnZiOYdKC5hW7nzKaNaeEj9Xc79guQUPnpH/sSDAwJWMaxZKMWFH2EdfRmcanHe4FeTTpiYwLe9JTFY4FA0syZ7K9ulhZ9rEx8h+uZC1YgpDcVZrJDTDdE8qUj4UWHAB7dbHtlOQlK9dQXH3bsxS1oQUHwZSMhg9T7zU1x+n6YfnGg9my/WVowbUAydwZb99ziFgzIRZy6DrYQ8EAQtG41c8ITy7QghWjBStGC1ZMqIIxxW7vmYQi2L9MXRFTglGn4zWWmWJC1RIWTDDKYGwahNOj8YqYEoyV6Cxq+Zsf0LSCubx/B3N1UQDBkNsgg5LP60erP/yCRk14mLeH2bNxS8wIxjh0w+60jOVacecDz3KZNLGk9EzBLBJyWebaz9aL7Yhrhk42HiT3P7cqYkkw1i9MvOcp8b4VhuR2lNx6wEnBz+OBcV9rSm7ehz75vFxsQ2CNb1rX68Jf4+uGmKoiMP3vNw+ImDBllni4/FDlL+J1wewFFJ/YidZ+fipz123YSs1a8fGQvbqKCCAYoGFjybdwfWqPaQUv0e4fjH8JNr9kFa0oWyt+R6wr30opLbPrXi6IOcHAlDzaT3JNTY34if/vY8VXG76LnFwQrYKxyj2gYBBAsj2MzI1AtWAnugR3ptJVa4ScX38/HFwwsKqL8WdKRp0b0cy1iCrBLDOj3410NXelBuSMp/jmlxkSZftamJLtDd+68i2UEokGTUZUCYYM3G3FpxtyQl00aEqeMOVJ+vSLDZSCRSvRIBdElWA3QDKGSTHm4GTCVRVnjWAAyViGKnsvUpxVgqMRLVgxWrBitGDFaMGK0YIVowUrRgtWjBasGC1YMU2zjviEZY0isn78D43o8OjRWGtOAAAAAElFTkSuQmCC;" parent="45" vertex="1">
          <mxGeometry x="10" width="50" height="50" as="geometry" />
        </mxCell>
        <mxCell id="47" value="1" style="ellipse;whiteSpace=wrap;html=1;aspect=fixed;fontColor=#FFFFFF;fontSize=8;strokeColor=#98A2AE;fontFamily=Manrope;fontSource=https://fonts.googleapis.com/css?family=Manrope;fillColor=#BEC8D2;strokeWidth=1;" parent="45" vertex="1">
          <mxGeometry x="60" y="20" width="10" height="10" as="geometry" />
        </mxCell>
        <mxCell id="49" value="4" style="ellipse;whiteSpace=wrap;html=1;aspect=fixed;fontColor=#FFFFFF;fontSize=8;strokeColor=#98A2AE;fontFamily=Manrope;fontSource=https://fonts.googleapis.com/css?family=Manrope;fillColor=#BEC8D2;strokeWidth=1;" parent="45" vertex="1">
          <mxGeometry x="30" y="50" width="10" height="10" as="geometry" />
        </mxCell>
        <mxCell id="174" value="&lt;font color=&quot;#1a1a1a&quot;&gt;SR-1x&lt;/font&gt;" style="rounded=1;whiteSpace=wrap;html=1;fontSize=8;strokeWidth=1;fillColor=#DAE8FC;strokeColor=none;fontColor=#FFFFFF;fontFamily=Manrope;fontSource=https%3A%2F%2Ffonts.googleapis.com%2Fcss%3Ffamily%3DManrope;spacing=0;" parent="45" vertex="1">
          <mxGeometry x="4" y="36" width="62" height="12" as="geometry" />
        </mxCell>
        <mxCell id="217" value="RR" style="ellipse;whiteSpace=wrap;html=1;fillColor=#04d9ff;strokeColor=none;fontColor=#FFFFFF" parent="45" vertex="1">
          <mxGeometry x="46" y="-9" width="30" height="18" as="geometry" />
        </mxCell>
        <mxCell id="79" style="edgeStyle=none;rounded=0;orthogonalLoop=1;jettySize=auto;html=1;exitX=1;exitY=0.5;exitDx=0;exitDy=0;entryX=0;entryY=0.5;entryDx=0;entryDy=0;endArrow=none;endFill=0;strokeColor=#98A2AE;startArrow=blockThin;startFill=1;fontSize=5;fontFamily=Manrope;fontSource=https%3A%2F%2Ffonts.googleapis.com%2Fcss%3Ffamily%3DManrope;labelBackgroundColor=#4D5766;fontColor=#FFFFFF;endSize=0;startSize=0;strokeWidth=2;" parent="1" source="92" target="54" edge="1">
          <mxGeometry relative="1" as="geometry" />
        </mxCell>
        <mxCell id="92" value="" style="ellipse;whiteSpace=wrap;html=1;aspect=fixed;fontColor=#FFFFFF;fontSize=6;fontFamily=Manrope;fontSource=https%3A%2F%2Ffonts.googleapis.com%2Fcss%3Ffamily%3DManrope;fillColor=#BEC8D2;strokeColor=none;" parent="1" vertex="1">
          <mxGeometry x="353.5" y="301" width="4" height="4" as="geometry" />
        </mxCell>
        <mxCell id="93" value="" style="edgeStyle=none;rounded=0;orthogonalLoop=1;jettySize=auto;html=1;exitX=1;exitY=0.5;exitDx=0;exitDy=0;entryX=0;entryY=0.5;entryDx=0;entryDy=0;endArrow=blockThin;endFill=1;strokeColor=#98A2AE;fontSize=5;fontFamily=Manrope;fontSource=https%3A%2F%2Ffonts.googleapis.com%2Fcss%3Ffamily%3DManrope;labelBackgroundColor=#4D5766;fontColor=#FFFFFF;endSize=0;startSize=0;strokeWidth=2;" parent="1" source="47" target="92" edge="1">
          <mxGeometry relative="1" as="geometry">
            <mxPoint x="299" y="303" as="sourcePoint" />
            <mxPoint x="412" y="303" as="targetPoint" />
          </mxGeometry>
        </mxCell>
        <mxCell id="51" value="" style="shape=image;verticalLabelPosition=bottom;labelBackgroundColor=default;verticalAlign=top;aspect=fixed;imageAspect=0;image=data:image/png,iVBORw0KGgoAAAANSUhEUgAAAFgAAABYCAYAAABxlTA0AAAAAXNSR0IArs4c6QAAAARnQU1BAACxjwv8YQUAAAAJcEhZcwAAFxEAABcRAcom8z8AAAikSURBVHhe7ZwJbBRVGMe3pUBrASkUlVMpV6EUQSlCCqhEjbYiIQEUETFyVEAr3hDwquCFVE2EYoTWCBTk8KgmiBfGqDEoRbkE5JByWW9UtJTC5/d/MwPD8na7OzOvu4vvS35pd3bezPS337735r039flSskijiKZZf2nBKtGCFaMFK0YLVowWrBgtWDFasGK0YMVowYrRghUTlYIbX8IX1lv+XqwRVYKb9SFfYiYlpPYlX1IP+T6xRtQIhlxfF2rf4wbasHE7jc57lF+nyfeVgYyPS+cyncWHJI4n26+uiQrBpty0jFzavfcAIU6cOEE33jY1NMnnXkoJLfrSkFH308hx0ykzeyT5knvK961rIi7YytxuOSz3oJBrxQlm+JiHapfcqCc1aXcFVR2tFuUK5y7hMh3l+9Y1ERV8WuaeLtcKSB5Rm2QW3Ljt5VT582+izKw5xbx/J/m+dU3EBFtyOXP3VBwSYhBHzSw8Wm38tCKoZC3YjwDVwosvv04LFr0tft+6fQ/d9eBs8TsCdXLA6kILtgG5cWa1UHFK7qLlq1lKGyoqXiVe7913iHz1utJtEx8TrxGoLqQNnxZsg7tQPfuNoH0HK4UMxOIV75GvQQZLuYhKSt8V2yr2/0gNL8jmbe1ofP5Msc2K2yc/Tr6G3U8dUwu2kdCVcoffLUQgFiNzIfeci1lKOhUveUdsh+DElv2N7hZnrF3yHPQSErrxxZt3e1qwDVH/duL+6gx6lbPVl8RiIdesl88Q3KiXIdLXge6Z/jy9ULRUVB3o+548phYsoSHfbTXgrznGHSAX2wIJxnuQjP2R7Xa5QAuW0BT4DegEEyzK8P7+ZYAWHCK1CQ6EFhwiWrBiIi0YjafV4Mred4IWbMLnzhkxhdp1v150JT2T/L8XzI1mHN/8jJ1cIMpu2rqTUtsMNLLZC8laMAvmu8LSVe+LsojyjdupuVeSdRXBNO5F8Uk9xC27FetZsshkt9WFFsxAIBo3vomxSy7fZEp2k8lasEkzBrftfLfon8muqgvHgnGyZL4gliImGj3h/JPDlW4Ez5hZxMdK9Tt2qFzItKEX5y+j48ePi+OJ6qKtQ8mOBfMnnX3tOCopfYezrswTFrLcHbsqxB/lRvD6b7fR3KKl4sMKm5I36CUuO2/hSvrn3ypxPAQavgsuGmRUJbJrCIRjwb6ONPn+Z8zTex8/saxwBDdhwX/+fcQsrSY+W7eREs7pceZgUzAcC45Pp+FjptL+A5Ui27xkHx/zy683GQPu3MJLz2+H90luPZDLbKadu/fR9/wtcAyX37FzL33DDVx19TFTLdERzubcYfkUl5QJafLrkOFYMPcf66VeRkmt+otM85IkRsiVnTcI9VL7ivURWBnkCC5bD3UsN5AYe64+Zgg+8k8VDcrN4+0dpOcNimPB4NzexldYBRgnlp0zGE24DMo5AWXF7MmFNOm+p4VYBORemTPemVzgSvDZBOpVXxrlP/ScqZZEIzcod4JzuUCJ4EAD49EKrpUl2uUa1YJLucBzwWgAMOPrPx0UrWAsIjGTpj8xz1RrNGhX5nggF3gqWGRCGk3i7hsWkPgSuUuDuk22b7RgCn7ltbeEXKNaMBs03N3JyoSDZ4JNuWPueFRcKGLB4jKKwyQl3pOViRaQBPytw6LBwSPv9SZzLTwRbModnfewqdaIcXcWGNVFOP3GSIBMbcKNHG6Fcb1eVmuuBZtyb817xNRqRMhre6MJFd80V4ItubZqARGTclXhWLAkc7H0dOjN9/H2tkanvZEb+GZDdt5giJsU2bE8wGl2OxJsyrU3aFVV1TQ2f6aYfsHIlluSMQYrO3cA4rgebcRlZMfyAtxKO5IctmA+CaZX8qbMMtUagYGRXXv2U+VPv4phQ7fgQRgxHhFKJnOGQe6Wbbulx/KCy9F1QyMoO38wwhbMNw+JKb1py/Y9plo1gQ8KAz+hCkaW/XH4L7O09zH4JnTfusjPHwxHVQRncOsOV9Fmzhgr0EF/oaiUZheWUCH/LJzngMJXafN3u8TxMGwZrmBkGgID7oW4Dtk5HNIla5izZ/ccCUY/MT6dWrYfRJtMIZhewSyAaOAEnZiOYdKC5hW7nzKaNaeEj9Xc79guQUPnpH/sSDAwJWMaxZKMWFH2EdfRmcanHe4FeTTpiYwLe9JTFY4FA0syZ7K9ulhZ9rEx8h+uZC1YgpDcVZrJDTDdE8qUj4UWHAB7dbHtlOQlK9dQXH3bsxS1oQUHwZSMhg9T7zU1x+n6YfnGg9my/WVowbUAydwZb99ziFgzIRZy6DrYQ8EAQtG41c8ITy7QghWjBStGC1ZMqIIxxW7vmYQi2L9MXRFTglGn4zWWmWJC1RIWTDDKYGwahNOj8YqYEoyV6Cxq+Zsf0LSCubx/B3N1UQDBkNsgg5LP60erP/yCRk14mLeH2bNxS8wIxjh0w+60jOVacecDz3KZNLGk9EzBLBJyWebaz9aL7Yhrhk42HiT3P7cqYkkw1i9MvOcp8b4VhuR2lNx6wEnBz+OBcV9rSm7ehz75vFxsQ2CNb1rX68Jf4+uGmKoiMP3vNw+ImDBllni4/FDlL+J1wewFFJ/YidZ+fipz123YSs1a8fGQvbqKCCAYoGFjybdwfWqPaQUv0e4fjH8JNr9kFa0oWyt+R6wr30opLbPrXi6IOcHAlDzaT3JNTY34if/vY8VXG76LnFwQrYKxyj2gYBBAsj2MzI1AtWAnugR3ptJVa4ScX38/HFwwsKqL8WdKRp0b0cy1iCrBLDOj3410NXelBuSMp/jmlxkSZftamJLtDd+68i2UEokGTUZUCYYM3G3FpxtyQl00aEqeMOVJ+vSLDZSCRSvRIBdElWA3QDKGSTHm4GTCVRVnjWAAyViGKnsvUpxVgqMRLVgxWrBitGDFaMGK0YIVowUrRgtWjBasGC1YMU2zjviEZY0isn78D43o8OjRWGtOAAAAAElFTkSuQmCC;" parent="1" vertex="1">
          <mxGeometry x="427" y="278" width="50" height="50" as="geometry" />
        </mxCell>
        <mxCell id="52" value="2" style="ellipse;whiteSpace=wrap;html=1;aspect=fixed;fontColor=#FFFFFF;fontSize=8;strokeColor=#98A2AE;fontFamily=Manrope;fontSource=https://fonts.googleapis.com/css?family=Manrope;fillColor=#BEC8D2;strokeWidth=1;" parent="1" vertex="1">
          <mxGeometry x="449" y="328" width="10" height="10" as="geometry" />
        </mxCell>
        <mxCell id="54" value="1" style="ellipse;whiteSpace=wrap;html=1;aspect=fixed;fontColor=#FFFFFF;fontSize=8;strokeColor=#98A2AE;fontFamily=Manrope;fontSource=https://fonts.googleapis.com/css?family=Manrope;fillColor=#BEC8D2;strokeWidth=1;" parent="1" vertex="1">
          <mxGeometry x="417" y="298" width="10" height="10" as="geometry" />
        </mxCell>
        <mxCell id="147" value="&lt;font style=&quot;font-size: 9px;&quot;&gt;R1&lt;/font&gt;" style="text;html=1;align=center;verticalAlign=middle;resizable=0;points=[];autosize=1;fontSize=14;fontFamily=Manrope;fontStyle=0;fontColor=#FFFFFF;" parent="1" vertex="1">
          <mxGeometry x="227" y="269" width="29" height="29" as="geometry" />
        </mxCell>
        <mxCell id="148" value="&lt;font style=&quot;font-size: 9px;&quot;&gt;R2&lt;/font&gt;" style="text;html=1;align=center;verticalAlign=middle;resizable=0;points=[];autosize=1;fontSize=14;fontFamily=Manrope;fontStyle=0;fontColor=#FFFFFF;" parent="1" vertex="1">
          <mxGeometry x="420" y="269" width="29" height="29" as="geometry" />
        </mxCell>
        <mxCell id="173" value="&lt;font color=&quot;#1a1a1a&quot;&gt;SR-1Se&lt;/font&gt;" style="rounded=1;whiteSpace=wrap;html=1;fontSize=8;strokeWidth=1;fillColor=#DAE8FC;strokeColor=none;fontColor=#FFFFFF;fontFamily=Manrope;fontSource=https%3A%2F%2Ffonts.googleapis.com%2Fcss%3Ffamily%3DManrope;spacing=0;" parent="1" vertex="1">
          <mxGeometry x="421" y="314" width="62" height="12" as="geometry" />
        </mxCell>
        <mxCell id="197" value="" style="group" parent="1" vertex="1" connectable="0">
          <mxGeometry x="224" y="437" width="76" height="60" as="geometry" />
        </mxCell>
        <mxCell id="198" value="" style="shape=image;verticalLabelPosition=bottom;labelBackgroundColor=default;verticalAlign=top;aspect=fixed;imageAspect=0;image=data:image/png,iVBORw0KGgoAAAANSUhEUgAAAFgAAABYCAYAAABxlTA0AAAAAXNSR0IArs4c6QAAAARnQU1BAACxjwv8YQUAAAAJcEhZcwAAFxEAABcRAcom8z8AAAikSURBVHhe7ZwJbBRVGMe3pUBrASkUlVMpV6EUQSlCCqhEjbYiIQEUETFyVEAr3hDwquCFVE2EYoTWCBTk8KgmiBfGqDEoRbkE5JByWW9UtJTC5/d/MwPD8na7OzOvu4vvS35pd3bezPS337735r039flSskijiKZZf2nBKtGCFaMFK0YLVowWrBgtWDFasGK0YMVowYrRghUTlYIbX8IX1lv+XqwRVYKb9SFfYiYlpPYlX1IP+T6xRtQIhlxfF2rf4wbasHE7jc57lF+nyfeVgYyPS+cyncWHJI4n26+uiQrBpty0jFzavfcAIU6cOEE33jY1NMnnXkoJLfrSkFH308hx0ykzeyT5knvK961rIi7YytxuOSz3oJBrxQlm+JiHapfcqCc1aXcFVR2tFuUK5y7hMh3l+9Y1ERV8WuaeLtcKSB5Rm2QW3Ljt5VT582+izKw5xbx/J/m+dU3EBFtyOXP3VBwSYhBHzSw8Wm38tCKoZC3YjwDVwosvv04LFr0tft+6fQ/d9eBs8TsCdXLA6kILtgG5cWa1UHFK7qLlq1lKGyoqXiVe7913iHz1utJtEx8TrxGoLqQNnxZsg7tQPfuNoH0HK4UMxOIV75GvQQZLuYhKSt8V2yr2/0gNL8jmbe1ofP5Msc2K2yc/Tr6G3U8dUwu2kdCVcoffLUQgFiNzIfeci1lKOhUveUdsh+DElv2N7hZnrF3yHPQSErrxxZt3e1qwDVH/duL+6gx6lbPVl8RiIdesl88Q3KiXIdLXge6Z/jy9ULRUVB3o+548phYsoSHfbTXgrznGHSAX2wIJxnuQjP2R7Xa5QAuW0BT4DegEEyzK8P7+ZYAWHCK1CQ6EFhwiWrBiIi0YjafV4Mred4IWbMLnzhkxhdp1v150JT2T/L8XzI1mHN/8jJ1cIMpu2rqTUtsMNLLZC8laMAvmu8LSVe+LsojyjdupuVeSdRXBNO5F8Uk9xC27FetZsshkt9WFFsxAIBo3vomxSy7fZEp2k8lasEkzBrftfLfon8muqgvHgnGyZL4gliImGj3h/JPDlW4Ez5hZxMdK9Tt2qFzItKEX5y+j48ePi+OJ6qKtQ8mOBfMnnX3tOCopfYezrswTFrLcHbsqxB/lRvD6b7fR3KKl4sMKm5I36CUuO2/hSvrn3ypxPAQavgsuGmRUJbJrCIRjwb6ONPn+Z8zTex8/saxwBDdhwX/+fcQsrSY+W7eREs7pceZgUzAcC45Pp+FjptL+A5Ui27xkHx/zy683GQPu3MJLz2+H90luPZDLbKadu/fR9/wtcAyX37FzL33DDVx19TFTLdERzubcYfkUl5QJafLrkOFYMPcf66VeRkmt+otM85IkRsiVnTcI9VL7ivURWBnkCC5bD3UsN5AYe64+Zgg+8k8VDcrN4+0dpOcNimPB4NzexldYBRgnlp0zGE24DMo5AWXF7MmFNOm+p4VYBORemTPemVzgSvDZBOpVXxrlP/ScqZZEIzcod4JzuUCJ4EAD49EKrpUl2uUa1YJLucBzwWgAMOPrPx0UrWAsIjGTpj8xz1RrNGhX5nggF3gqWGRCGk3i7hsWkPgSuUuDuk22b7RgCn7ltbeEXKNaMBs03N3JyoSDZ4JNuWPueFRcKGLB4jKKwyQl3pOViRaQBPytw6LBwSPv9SZzLTwRbModnfewqdaIcXcWGNVFOP3GSIBMbcKNHG6Fcb1eVmuuBZtyb817xNRqRMhre6MJFd80V4ItubZqARGTclXhWLAkc7H0dOjN9/H2tkanvZEb+GZDdt5giJsU2bE8wGl2OxJsyrU3aFVV1TQ2f6aYfsHIlluSMQYrO3cA4rgebcRlZMfyAtxKO5IctmA+CaZX8qbMMtUagYGRXXv2U+VPv4phQ7fgQRgxHhFKJnOGQe6Wbbulx/KCy9F1QyMoO38wwhbMNw+JKb1py/Y9plo1gQ8KAz+hCkaW/XH4L7O09zH4JnTfusjPHwxHVQRncOsOV9Fmzhgr0EF/oaiUZheWUCH/LJzngMJXafN3u8TxMGwZrmBkGgID7oW4Dtk5HNIla5izZ/ccCUY/MT6dWrYfRJtMIZhewSyAaOAEnZiOYdKC5hW7nzKaNaeEj9Xc79guQUPnpH/sSDAwJWMaxZKMWFH2EdfRmcanHe4FeTTpiYwLe9JTFY4FA0syZ7K9ulhZ9rEx8h+uZC1YgpDcVZrJDTDdE8qUj4UWHAB7dbHtlOQlK9dQXH3bsxS1oQUHwZSMhg9T7zU1x+n6YfnGg9my/WVowbUAydwZb99ziFgzIRZy6DrYQ8EAQtG41c8ITy7QghWjBStGC1ZMqIIxxW7vmYQi2L9MXRFTglGn4zWWmWJC1RIWTDDKYGwahNOj8YqYEoyV6Cxq+Zsf0LSCubx/B3N1UQDBkNsgg5LP60erP/yCRk14mLeH2bNxS8wIxjh0w+60jOVacecDz3KZNLGk9EzBLBJyWebaz9aL7Yhrhk42HiT3P7cqYkkw1i9MvOcp8b4VhuR2lNx6wEnBz+OBcV9rSm7ehz75vFxsQ2CNb1rX68Jf4+uGmKoiMP3vNw+ImDBllni4/FDlL+J1wewFFJ/YidZ+fipz123YSs1a8fGQvbqKCCAYoGFjybdwfWqPaQUv0e4fjH8JNr9kFa0oWyt+R6wr30opLbPrXi6IOcHAlDzaT3JNTY34if/vY8VXG76LnFwQrYKxyj2gYBBAsj2MzI1AtWAnugR3ptJVa4ScX38/HFwwsKqL8WdKRp0b0cy1iCrBLDOj3410NXelBuSMp/jmlxkSZftamJLtDd+68i2UEokGTUZUCYYM3G3FpxtyQl00aEqeMOVJ+vSLDZSCRSvRIBdElWA3QDKGSTHm4GTCVRVnjWAAyViGKnsvUpxVgqMRLVgxWrBitGDFaMGK0YIVowUrRgtWjBasGC1YMU2zjviEZY0isn78D43o8OjRWGtOAAAAAElFTkSuQmCC;" parent="197" vertex="1">
          <mxGeometry x="10" width="50" height="50" as="geometry" />
        </mxCell>
        <mxCell id="199" value="3" style="ellipse;whiteSpace=wrap;html=1;aspect=fixed;fontColor=#FFFFFF;fontSize=8;strokeColor=#98A2AE;fontFamily=Manrope;fontSource=https://fonts.googleapis.com/css?family=Manrope;fillColor=#BEC8D2;strokeWidth=1;" parent="197" vertex="1">
          <mxGeometry x="60" y="20" width="10" height="10" as="geometry" />
        </mxCell>
        <mxCell id="200" value="4" style="ellipse;whiteSpace=wrap;html=1;aspect=fixed;fontColor=#FFFFFF;fontSize=8;strokeColor=#98A2AE;fontFamily=Manrope;fontSource=https://fonts.googleapis.com/css?family=Manrope;fillColor=#BEC8D2;strokeWidth=1;" parent="197" vertex="1">
          <mxGeometry x="30" y="-11" width="10" height="10" as="geometry" />
        </mxCell>
        <mxCell id="201" value="&lt;font color=&quot;#1a1a1a&quot;&gt;SR-7s&lt;/font&gt;" style="rounded=1;whiteSpace=wrap;html=1;fontSize=8;strokeWidth=1;fillColor=#DAE8FC;strokeColor=none;fontColor=#FFFFFF;fontFamily=Manrope;fontSource=https%3A%2F%2Ffonts.googleapis.com%2Fcss%3Ffamily%3DManrope;spacing=0;" parent="197" vertex="1">
          <mxGeometry x="4" y="36" width="62" height="12" as="geometry" />
        </mxCell>
        <mxCell id="139" value="RR" style="ellipse;whiteSpace=wrap;html=1;fillColor=#04d9ff;strokeColor=none;fontColor=#FFFFFF" parent="197" vertex="1">
          <mxGeometry x="46" y="-11" width="30" height="18" as="geometry" />
        </mxCell>
        <mxCell id="202" style="edgeStyle=none;rounded=0;orthogonalLoop=1;jettySize=auto;html=1;exitX=1;exitY=0.5;exitDx=0;exitDy=0;entryX=0;entryY=0.5;entryDx=0;entryDy=0;endArrow=none;endFill=0;strokeColor=#98A2AE;startArrow=blockThin;startFill=1;fontSize=5;fontFamily=Manrope;fontSource=https%3A%2F%2Ffonts.googleapis.com%2Fcss%3Ffamily%3DManrope;labelBackgroundColor=#4D5766;fontColor=#FFFFFF;endSize=0;startSize=0;strokeWidth=2;" parent="1" source="205" target="209" edge="1">
          <mxGeometry relative="1" as="geometry" />
        </mxCell>
        <mxCell id="203" value="&lt;font style=&quot;font-size: 8px;&quot;&gt;4.4.4.4&lt;/font&gt;" style="text;html=1;align=center;verticalAlign=middle;resizable=0;points=[];autosize=1;fontSize=14;fontFamily=Manrope;fontStyle=0;fontColor=#FFFFFF;" parent="1" vertex="1">
          <mxGeometry x="215" y="475" width="40" height="29" as="geometry" />
        </mxCell>
        <mxCell id="204" value="&lt;font style=&quot;font-size: 8px;&quot;&gt;3.3.3.3&lt;/font&gt;" style="text;html=1;align=center;verticalAlign=middle;resizable=0;points=[];autosize=1;fontSize=14;fontFamily=Manrope;fontStyle=0;fontColor=#FFFFFF;" parent="1" vertex="1">
          <mxGeometry x="463" y="475" width="42" height="29" as="geometry" />
        </mxCell>
        <mxCell id="205" value="" style="ellipse;whiteSpace=wrap;html=1;aspect=fixed;fontColor=#FFFFFF;fontSize=6;fontFamily=Manrope;fontSource=https%3A%2F%2Ffonts.googleapis.com%2Fcss%3Ffamily%3DManrope;fillColor=#BEC8D2;strokeColor=none;" parent="1" vertex="1">
          <mxGeometry x="353.5" y="460" width="4" height="4" as="geometry" />
        </mxCell>
        <mxCell id="206" value="" style="edgeStyle=none;rounded=0;orthogonalLoop=1;jettySize=auto;html=1;exitX=1;exitY=0.5;exitDx=0;exitDy=0;entryX=0;entryY=0.5;entryDx=0;entryDy=0;endArrow=blockThin;endFill=1;strokeColor=#98A2AE;fontSize=5;fontFamily=Manrope;fontSource=https%3A%2F%2Ffonts.googleapis.com%2Fcss%3Ffamily%3DManrope;labelBackgroundColor=#4D5766;fontColor=#FFFFFF;endSize=0;startSize=0;strokeWidth=2;" parent="1" source="199" target="205" edge="1">
          <mxGeometry relative="1" as="geometry">
            <mxPoint x="299" y="462" as="sourcePoint" />
            <mxPoint x="412" y="462" as="targetPoint" />
          </mxGeometry>
        </mxCell>
        <mxCell id="207" value="" style="shape=image;verticalLabelPosition=bottom;labelBackgroundColor=default;verticalAlign=top;aspect=fixed;imageAspect=0;image=data:image/png,iVBORw0KGgoAAAANSUhEUgAAAFgAAABYCAYAAABxlTA0AAAAAXNSR0IArs4c6QAAAARnQU1BAACxjwv8YQUAAAAJcEhZcwAAFxEAABcRAcom8z8AAAikSURBVHhe7ZwJbBRVGMe3pUBrASkUlVMpV6EUQSlCCqhEjbYiIQEUETFyVEAr3hDwquCFVE2EYoTWCBTk8KgmiBfGqDEoRbkE5JByWW9UtJTC5/d/MwPD8na7OzOvu4vvS35pd3bezPS337735r039flSskijiKZZf2nBKtGCFaMFK0YLVowWrBgtWDFasGK0YMVowYrRghUTlYIbX8IX1lv+XqwRVYKb9SFfYiYlpPYlX1IP+T6xRtQIhlxfF2rf4wbasHE7jc57lF+nyfeVgYyPS+cyncWHJI4n26+uiQrBpty0jFzavfcAIU6cOEE33jY1NMnnXkoJLfrSkFH308hx0ykzeyT5knvK961rIi7YytxuOSz3oJBrxQlm+JiHapfcqCc1aXcFVR2tFuUK5y7hMh3l+9Y1ERV8WuaeLtcKSB5Rm2QW3Ljt5VT582+izKw5xbx/J/m+dU3EBFtyOXP3VBwSYhBHzSw8Wm38tCKoZC3YjwDVwosvv04LFr0tft+6fQ/d9eBs8TsCdXLA6kILtgG5cWa1UHFK7qLlq1lKGyoqXiVe7913iHz1utJtEx8TrxGoLqQNnxZsg7tQPfuNoH0HK4UMxOIV75GvQQZLuYhKSt8V2yr2/0gNL8jmbe1ofP5Msc2K2yc/Tr6G3U8dUwu2kdCVcoffLUQgFiNzIfeci1lKOhUveUdsh+DElv2N7hZnrF3yHPQSErrxxZt3e1qwDVH/duL+6gx6lbPVl8RiIdesl88Q3KiXIdLXge6Z/jy9ULRUVB3o+548phYsoSHfbTXgrznGHSAX2wIJxnuQjP2R7Xa5QAuW0BT4DegEEyzK8P7+ZYAWHCK1CQ6EFhwiWrBiIi0YjafV4Mred4IWbMLnzhkxhdp1v150JT2T/L8XzI1mHN/8jJ1cIMpu2rqTUtsMNLLZC8laMAvmu8LSVe+LsojyjdupuVeSdRXBNO5F8Uk9xC27FetZsshkt9WFFsxAIBo3vomxSy7fZEp2k8lasEkzBrftfLfon8muqgvHgnGyZL4gliImGj3h/JPDlW4Ez5hZxMdK9Tt2qFzItKEX5y+j48ePi+OJ6qKtQ8mOBfMnnX3tOCopfYezrswTFrLcHbsqxB/lRvD6b7fR3KKl4sMKm5I36CUuO2/hSvrn3ypxPAQavgsuGmRUJbJrCIRjwb6ONPn+Z8zTex8/saxwBDdhwX/+fcQsrSY+W7eREs7pceZgUzAcC45Pp+FjptL+A5Ui27xkHx/zy683GQPu3MJLz2+H90luPZDLbKadu/fR9/wtcAyX37FzL33DDVx19TFTLdERzubcYfkUl5QJafLrkOFYMPcf66VeRkmt+otM85IkRsiVnTcI9VL7ivURWBnkCC5bD3UsN5AYe64+Zgg+8k8VDcrN4+0dpOcNimPB4NzexldYBRgnlp0zGE24DMo5AWXF7MmFNOm+p4VYBORemTPemVzgSvDZBOpVXxrlP/ScqZZEIzcod4JzuUCJ4EAD49EKrpUl2uUa1YJLucBzwWgAMOPrPx0UrWAsIjGTpj8xz1RrNGhX5nggF3gqWGRCGk3i7hsWkPgSuUuDuk22b7RgCn7ltbeEXKNaMBs03N3JyoSDZ4JNuWPueFRcKGLB4jKKwyQl3pOViRaQBPytw6LBwSPv9SZzLTwRbModnfewqdaIcXcWGNVFOP3GSIBMbcKNHG6Fcb1eVmuuBZtyb817xNRqRMhre6MJFd80V4ItubZqARGTclXhWLAkc7H0dOjN9/H2tkanvZEb+GZDdt5giJsU2bE8wGl2OxJsyrU3aFVV1TQ2f6aYfsHIlluSMQYrO3cA4rgebcRlZMfyAtxKO5IctmA+CaZX8qbMMtUagYGRXXv2U+VPv4phQ7fgQRgxHhFKJnOGQe6Wbbulx/KCy9F1QyMoO38wwhbMNw+JKb1py/Y9plo1gQ8KAz+hCkaW/XH4L7O09zH4JnTfusjPHwxHVQRncOsOV9Fmzhgr0EF/oaiUZheWUCH/LJzngMJXafN3u8TxMGwZrmBkGgID7oW4Dtk5HNIla5izZ/ccCUY/MT6dWrYfRJtMIZhewSyAaOAEnZiOYdKC5hW7nzKaNaeEj9Xc79guQUPnpH/sSDAwJWMaxZKMWFH2EdfRmcanHe4FeTTpiYwLe9JTFY4FA0syZ7K9ulhZ9rEx8h+uZC1YgpDcVZrJDTDdE8qUj4UWHAB7dbHtlOQlK9dQXH3bsxS1oQUHwZSMhg9T7zU1x+n6YfnGg9my/WVowbUAydwZb99ziFgzIRZy6DrYQ8EAQtG41c8ITy7QghWjBStGC1ZMqIIxxW7vmYQi2L9MXRFTglGn4zWWmWJC1RIWTDDKYGwahNOj8YqYEoyV6Cxq+Zsf0LSCubx/B3N1UQDBkNsgg5LP60erP/yCRk14mLeH2bNxS8wIxjh0w+60jOVacecDz3KZNLGk9EzBLBJyWebaz9aL7Yhrhk42HiT3P7cqYkkw1i9MvOcp8b4VhuR2lNx6wEnBz+OBcV9rSm7ehz75vFxsQ2CNb1rX68Jf4+uGmKoiMP3vNw+ImDBllni4/FDlL+J1wewFFJ/YidZ+fipz123YSs1a8fGQvbqKCCAYoGFjybdwfWqPaQUv0e4fjH8JNr9kFa0oWyt+R6wr30opLbPrXi6IOcHAlDzaT3JNTY34if/vY8VXG76LnFwQrYKxyj2gYBBAsj2MzI1AtWAnugR3ptJVa4ScX38/HFwwsKqL8WdKRp0b0cy1iCrBLDOj3410NXelBuSMp/jmlxkSZftamJLtDd+68i2UEokGTUZUCYYM3G3FpxtyQl00aEqeMOVJ+vSLDZSCRSvRIBdElWA3QDKGSTHm4GTCVRVnjWAAyViGKnsvUpxVgqMRLVgxWrBitGDFaMGK0YIVowUrRgtWjBasGC1YMU2zjviEZY0isn78D43o8OjRWGtOAAAAAElFTkSuQmCC;" parent="1" vertex="1">
          <mxGeometry x="427" y="437" width="50" height="50" as="geometry" />
        </mxCell>
        <mxCell id="208" value="2" style="ellipse;whiteSpace=wrap;html=1;aspect=fixed;fontColor=#FFFFFF;fontSize=8;strokeColor=#98A2AE;fontFamily=Manrope;fontSource=https://fonts.googleapis.com/css?family=Manrope;fillColor=#BEC8D2;strokeWidth=1;" parent="1" vertex="1">
          <mxGeometry x="449" y="426" width="10" height="10" as="geometry" />
        </mxCell>
        <mxCell id="209" value="3" style="ellipse;whiteSpace=wrap;html=1;aspect=fixed;fontColor=#FFFFFF;fontSize=8;strokeColor=#98A2AE;fontFamily=Manrope;fontSource=https://fonts.googleapis.com/css?family=Manrope;fillColor=#BEC8D2;strokeWidth=1;" parent="1" vertex="1">
          <mxGeometry x="417" y="457" width="10" height="10" as="geometry" />
        </mxCell>
        <mxCell id="212" value="&lt;font style=&quot;font-size: 9px;&quot;&gt;R4&lt;/font&gt;" style="text;html=1;align=center;verticalAlign=middle;resizable=0;points=[];autosize=1;fontSize=14;fontFamily=Manrope;fontStyle=0;fontColor=#FFFFFF;" parent="1" vertex="1">
          <mxGeometry x="228" y="428" width="29" height="29" as="geometry" />
        </mxCell>
        <mxCell id="213" value="&lt;font style=&quot;font-size: 9px;&quot;&gt;R3&lt;/font&gt;" style="text;html=1;align=center;verticalAlign=middle;resizable=0;points=[];autosize=1;fontSize=14;fontFamily=Manrope;fontStyle=0;fontColor=#FFFFFF;" parent="1" vertex="1">
          <mxGeometry x="421" y="428" width="29" height="29" as="geometry" />
        </mxCell>
        <mxCell id="216" value="&lt;font color=&quot;#1a1a1a&quot;&gt;SR-2Se&lt;/font&gt;" style="rounded=1;whiteSpace=wrap;html=1;fontSize=8;strokeWidth=1;fillColor=#DAE8FC;strokeColor=none;fontColor=#FFFFFF;fontFamily=Manrope;fontSource=https%3A%2F%2Ffonts.googleapis.com%2Fcss%3Ffamily%3DManrope;spacing=0;" parent="1" vertex="1">
          <mxGeometry x="421" y="473" width="62" height="12" as="geometry" />
        </mxCell>
        <mxCell id="218" value="&lt;font style=&quot;font-size: 8px;&quot;&gt;1.1.1.1&lt;/font&gt;" style="text;html=1;align=center;verticalAlign=middle;resizable=0;points=[];autosize=1;fontSize=14;fontFamily=Manrope;fontStyle=0;fontColor=#FFFFFF;" parent="1" vertex="1">
          <mxGeometry x="216" y="317" width="40" height="29" as="geometry" />
        </mxCell>
        <mxCell id="219" value="&lt;font style=&quot;font-size: 8px;&quot;&gt;2.2.2.2&lt;/font&gt;" style="text;html=1;align=center;verticalAlign=middle;resizable=0;points=[];autosize=1;fontSize=14;fontFamily=Manrope;fontStyle=0;fontColor=#FFFFFF;" parent="1" vertex="1">
          <mxGeometry x="464" y="317" width="40" height="29" as="geometry" />
        </mxCell>
        <mxCell id="220" value="" style="ellipse;whiteSpace=wrap;html=1;aspect=fixed;fontColor=#FFFFFF;fontSize=6;fontFamily=Manrope;fontSource=https%3A%2F%2Ffonts.googleapis.com%2Fcss%3Ffamily%3DManrope;fillColor=#BEC8D2;strokeColor=none;" parent="1" vertex="1">
          <mxGeometry x="257" y="381" width="4" height="4" as="geometry" />
        </mxCell>
        <mxCell id="222" value="" style="edgeStyle=none;rounded=0;orthogonalLoop=1;jettySize=auto;html=1;exitX=0.5;exitY=1;exitDx=0;exitDy=0;entryX=0.5;entryY=0;entryDx=0;entryDy=0;endArrow=blockThin;endFill=1;strokeColor=#98A2AE;fontSize=5;fontFamily=Manrope;fontSource=https%3A%2F%2Ffonts.googleapis.com%2Fcss%3Ffamily%3DManrope;labelBackgroundColor=#4D5766;fontColor=#FFFFFF;endSize=0;startSize=0;strokeWidth=2;" parent="1" source="49" target="220" edge="1">
          <mxGeometry relative="1" as="geometry">
            <mxPoint x="304" y="313" as="sourcePoint" />
            <mxPoint x="363" y="313" as="targetPoint" />
          </mxGeometry>
        </mxCell>
        <mxCell id="223" value="" style="edgeStyle=none;rounded=0;orthogonalLoop=1;jettySize=auto;html=1;entryX=0.5;entryY=1;entryDx=0;entryDy=0;endArrow=blockThin;endFill=1;strokeColor=#98A2AE;fontSize=5;fontFamily=Manrope;fontSource=https%3A%2F%2Ffonts.googleapis.com%2Fcss%3Ffamily%3DManrope;labelBackgroundColor=#4D5766;fontColor=#FFFFFF;endSize=0;startSize=0;strokeWidth=2;exitX=0.5;exitY=0;exitDx=0;exitDy=0;" parent="1" source="200" target="220" edge="1">
          <mxGeometry relative="1" as="geometry">
            <mxPoint x="258" y="422" as="sourcePoint" />
            <mxPoint x="269" y="391" as="targetPoint" />
          </mxGeometry>
        </mxCell>
        <mxCell id="224" value="" style="ellipse;whiteSpace=wrap;html=1;aspect=fixed;fontColor=#FFFFFF;fontSize=6;fontFamily=Manrope;fontSource=https%3A%2F%2Ffonts.googleapis.com%2Fcss%3Ffamily%3DManrope;fillColor=#BEC8D2;strokeColor=none;" parent="1" vertex="1">
          <mxGeometry x="452" y="381" width="4" height="4" as="geometry" />
        </mxCell>
        <mxCell id="225" value="" style="edgeStyle=none;rounded=0;orthogonalLoop=1;jettySize=auto;html=1;exitX=0.5;exitY=1;exitDx=0;exitDy=0;entryX=0.5;entryY=0;entryDx=0;entryDy=0;endArrow=blockThin;endFill=1;strokeColor=#98A2AE;fontSize=5;fontFamily=Manrope;fontSource=https%3A%2F%2Ffonts.googleapis.com%2Fcss%3Ffamily%3DManrope;labelBackgroundColor=#4D5766;fontColor=#FFFFFF;endSize=0;startSize=0;strokeWidth=2;" parent="1" target="224" edge="1">
          <mxGeometry relative="1" as="geometry">
            <mxPoint x="454" y="338" as="sourcePoint" />
            <mxPoint x="558" y="313" as="targetPoint" />
          </mxGeometry>
        </mxCell>
        <mxCell id="226" value="" style="edgeStyle=none;rounded=0;orthogonalLoop=1;jettySize=auto;html=1;entryX=0.5;entryY=1;entryDx=0;entryDy=0;endArrow=blockThin;endFill=1;strokeColor=#98A2AE;fontSize=5;fontFamily=Manrope;fontSource=https%3A%2F%2Ffonts.googleapis.com%2Fcss%3Ffamily%3DManrope;labelBackgroundColor=#4D5766;fontColor=#FFFFFF;endSize=0;startSize=0;strokeWidth=2;exitX=0.5;exitY=0;exitDx=0;exitDy=0;" parent="1" target="224" edge="1">
          <mxGeometry relative="1" as="geometry">
            <mxPoint x="454" y="426" as="sourcePoint" />
            <mxPoint x="464" y="391" as="targetPoint" />
          </mxGeometry>
        </mxCell>
        <mxCell id="258" value="" style="shape=image;verticalLabelPosition=bottom;labelBackgroundColor=default;verticalAlign=top;aspect=fixed;imageAspect=0;image=data:image/png,iVBORw0KGgoAAAANSUhEUgAAALoAAAC6CAYAAAAZDlfxAAAAAXNSR0IArs4c6QAAAARnQU1BAACxjwv8YQUAAAAJcEhZcwAADsMAAA7DAcdvqGQAAA0wSURBVHhe7Z1LjBxHGcdr9hHbu96s7CQEYzs4spAQQoosLli2FZ985gQ3JCwUISJZediBmGyya1tAFAkhISTEwUjcuHCBkyWkGNZYXBBcECeHxASwCDZh/Vg/dof591bt9vR0T7+qur+q/v+k3qmene3pnfn1N19/VTXdU6QQi4uLv9PNOEcGSxOvYV/fgiv6NmKwX8d0k4yBomeQELspoauAg2BTfoqfDkXXeCR2HpviU/otOi16Qu6j+jYkTMrTefE7J3oH5B5HFO27KHxnRI8J3jW50+hcehO06DG5fc65XdOJKB/km8/oXYmgo3xQolNwayzjR0jCByE6BXdGMMJ7LToFb4xl32X3VnQtOQVvDq9PWr0TXQvOKkp7eCm8N7JowQGjuAy8Sme8EF1LTsHl4U10Fy06o7g3iI/uYkVnFPcO0dFdpOiU3GtERndRomvBASX3G3GyixGdUTw4RKUyIkSn5EEjIrq3Ljol7wSty96q6JS8U7Qqe2uiU/JO0prsrYhOyTtNK7I3KroWHFDybtO47I2JzihOEjRafpzQt02AobWEGBBkj8Y+5Z3SiOj6n2ntxJcQ5/IxZSEFcJ6zOxWdkpMSOJXdmeiUnFTAmexORJcm+cTExqlIv9+Plir0er1oAevr69FtFWzsCzDbsbEvoM52LONEduuiS5N8//796uTJk1H74sWL6vr161G7LDa2I2lfIPnCwoJeU+r8+fNBy2616iJNcltACiNWqOzdu1e3RGC97GhV9AGslXuCMLHTsCq7NdH1Tjmt4hBSFSuih5qykNaxFtVri07JiWOsyG4jojMvJ66pLXst0fWTMy8n4qksOlMW0jC1onqdiM6UhTRNZdkrie5LyjK/66mhjh6093yqfP04WXPGdubmn9BrxbC1L594es/IdnY/+bReK8bs3K6hbQCs4/5QKS2rpJQFXeHjSL6ZBnSbl8HGdnzYF5C3narDFixTeohAFdExIKLlaN4bSL5v7BtG3IADQYDs/YGHpbKRUg+WkrJQ8vbA6573SdoAPe1iYcrm6AJOQHuUnIBSJ6aFo7PeaOu5eXJ4KfjT+0q9++uf6bVh8Pj5uZmofe/+Q7W6ej9ql2X79m1qx7Zptd5XauX2HbWORkkmJnpqbuesGtzU2pepqSk1N7s9aq/cWVWPHj2K2mWZ2zmjpiYn1KO19cH/dFffO8qXvvw1deApvaJZWjo3+Fl9PL0lCufqhUSXIjmIj8U2LC0t6RZxwtSseus7p/XKBoLGrxeSvU4dnRBvyBVdUjQnJIVCuTojOukEY0VnNCeekBvVGdFJJ8gTvbG6OcqAeUtaxYW0A0q8ae9R2tIQY6N6ZnmxybSlrsAsL7plcvsu9ca3Tum1cjRchswsNY473BqL5nWjdL83pVvEBbOzO3VLPJnOpoquo3ljY1rKjuAbob+mG8QFq6uruiWezDEwqTI3mbYYigwUyor8TF0ck9IzCooEqA8//LDpHtTU9CVLdAFDcUfpT2xTiwvf1mtbUHTHpIguZLhuFiOyj6QuOpqLkxz01u/XT3OIFRCpfSItR+dcUBIcQ6JLjuaElGCkpj6uvEhIMCRFZ9pCgoQRnYTKUPqyKTrzcxIyjOikE8RFZ35OQmPT6Uh0pi0kUDbHvjB1IZ3AK9Enp2c48UIIHlzsa4goXRmE91YHcWEWSpEXjqMXW2J6p3rr7Kt6ZQuhoxeTRN/TaHKYVidA151htLh0fnCUtvpiBs2O+T3qtZde0GvlEPJFR8uB5Og8j3bJZHPzPp0hJqIXgalLO/Qee1y9+frLem0LT1IXsCxC9KLgigynXxmdpEvRHePfxIskUeriTUfRnZVbnHghhBAmXhASGkeQurRaWixLWoWmbuoyM79HPfe5A3qtHFevXtWtLQ4fPqxb2fz9X7fUf25+rO5+/E99TzH2P/tZte+TxS6q9fs//DGaflgb2V8bXQhEdJYsBpw4cSJabJG3vZNf/Yo689IL0UGBA60okNzmfnYFRPTWL1tQBlcRHdJd/Pkv1PX3/qrvrQ7khYyL57+fGVHxnE/sno+EB0WfG9vGp4GN/SxMIBGdtABSFsj6zg9/Gq1DeHydxzjwe0bzalD0loHwiObgmU8/G93mgdyelIOiC8CIm3eSOTu3W7dIWSi6ABDVL126FKUleekLuLNyU7dIUSi6R+DklVSDonsGIr+V2njHoOikE3glOgZ11Rm3LhVTNsyL1qazCDV49JCiph5fcH+RHN8Gvs0wmjx+/PiibrcGOoHm5+dzlxe/+Q39F8NcvnxZt6oxvX1OHfniF9Sh5z6vHjx4EO3PuKU3vVP9778f6b8eBY85ePCgeve3y6pX4CIFzxz4TPTcv/zVb9TD+7f1vaOY7WJf/33jH/reDXAA4P7jzx9V1z64MXb/ytKb2qGePzY8rOHQoUPq2rVrqe9TfLl9+7bq99vvkxTRM4o3sN4Mowuqp6pf9cL0jAJE1TzyeiYRXSHeuJ5RAyKz6R3NezweC9LGyCCSow5ftqe1CDt37VWvnvq6XiuHlB7UQHJ0O8cq5MAgrbylrkCQEksZyQGeF0vaQDD8LX5nOp+K9LQWZc2jrv4sxET0IriaYeRqrAtI+4QwvwP4vbVRhhrz/BhekHZQlMbvydERIiI6ZqoUWS589x39F34DuXFQQUR8QtiUHPz5L3+LbqsOPR4hJcc2M4zyFikDv7xKXdYe3vVqhhHSkWTaY5asFMQGTfSccoYRIQKh6KQTUPQA4SjHUSh6gJjBX6j3kw0oemCgdm5q8x+8/150Syh6UEByc2VtlC9tly19hqJ7wrhBW2aQV1xyGx1fIUHRPQAio6cTvbeQGdLHF9yPdMV0RFHyUSi6pshgrjLY3B46ltD5hJ5UiJwk3stKyVPpQ/T2x1C2DESyKYnp/bSZI2Nb2E/so9m+WXCfq17WUIDoVzaa8okqCgFOvPAR7y7tIuVro4uMYHQ1epHkkPJNXcCj0Ysyvh+9/sSLc6rHDMwZ0zNPqrNnXtRr5eClXWzSm9QN4oJt25qZh+qSMEQvMC+TVOfevbu65S8iLr8IcAnGPHAClJbiMEd3TEaOjrSkCC2nLtHlF41drVde8GLkLZixwku7yMDk3kWWloncDiN1ISQHik46QST6IIc5NrhhfY6EBvJzuD0U0b3pISWkIJtOM3UhnYCik1DZTFvApuj6zuWNNULCghGdhMrQOSdFJ51gSHSmLyQQhvJzwIhOQmSkVO6V6KFe2sVHBM8wGonmIHXE4uCBjU7GaPv70cl4eo89rt58/WW9toXQGUbLokWvN8Oo3qVdyHh2zO9Rr+lL35SlhRlGqaKnpi76gRz7QnwjNW0BmZMtmozqTF2E48+lXVKjORAhelFwMnr6lVN6bQuK7piUGUaQHBNhBIFonllcyfyFPjJE1dTvrNziDCMhCLy0y0hJMQ7r6KQTjBVdYlQnJIXM3NzAiE46Qa7ojOpEOLnRHHgX0dNOgvrZxSNigYnJKd3yl8KGDI4aEeVGfNHRwsKCXtvC9vebky3il3Q3CCnpFormwDvRQd0hA6QeQmroY+vmSQo/UB85zNWJlBr62Lp5ktLJ7UB49Oe2nhQzqjeP6azzLZqDKqILGhrQGwi/T7dHyToQyvau2tiOD/sCsrbTwnDbcRTOzQ2VIrMs2bOZnJ5Rb5w9o9c2+NGPf6JufnRDrxUj7dPj3IW3VX9tVa/lY2tf0sb7fO/tH6gHqyt6LZ/49Ujj4IJgHlybtLTkwLvyYhnWHt4dilBolxULJHNSbKeM5MDWviTH+6BdRnIAmePbAFj3QPLMYbh5VBJdPxlPTEnTlDoBjVM5olN20jCVUhZD0KkLCYbKKYuhluiM6qQhKqcshtoRnbITx9RKWQxWUhfKThxhRXLAHJ1IpXZeHsea6CFH9X4/vG/+SPYNCBm/Eqd2Xh7H+piVgfCiek2T1y+t2o0d3w7EryK/i30BNrYjqHsfWEtZDE4GZ0mTnXiFdcmBs1GIlJ1UwInkwJnogLKTEjiTHDgVHVB2UgCnkgPnogPKTsbgXHIwfPpOSLNYrZWPoxHR9T+DGju/iprEuaJvndNI6hKHaQwZEHUsNhXNQeOiA8reaRrJyZO0Ijqg7J2kFclBa6IDyt4pWpMctCo6oOydoFXJQeuiA8oeNK1LDkSIDrTsRwaLmH0itREhORAnFaN7EDRePsxDZPSk7F4jJorHEZsmaNmZyviFSMmBeIkY3b1AXKqSxItoyeguGrFRPI5X4jC6i0J8FI/jXYRkdG8djEC94ovgBm9lofCt4EWakob3kmjhmc64xas0JY0goqGWHVB4u3gvuCGoj30Kb41gBDcEmd/GhGcOX47gBDcEL4GWnsJnE1VR0AhRcENn3nxG+RGCjd5pdPIN73CUj+QGXRHc0OnIlojyIMTXo7Nyx+FHeIyE+L6+Nps5N+iy3HEoegYx6YFk8Sl2ASh6QRLiA5PugCZexyGhDRS7CEr9HyFdgaRoerEgAAAAAElFTkSuQmCC;" parent="1" vertex="1">
          <mxGeometry x="243" y="250" width="26" height="26" as="geometry" />
        </mxCell>
        <mxCell id="259" value="" style="shape=image;verticalLabelPosition=bottom;labelBackgroundColor=default;verticalAlign=top;aspect=fixed;imageAspect=0;image=data:image/png,iVBORw0KGgoAAAANSUhEUgAAALoAAAC6CAYAAAAZDlfxAAAAAXNSR0IArs4c6QAAAARnQU1BAACxjwv8YQUAAAAJcEhZcwAADsMAAA7DAcdvqGQAAA0wSURBVHhe7Z1LjBxHGcdr9hHbu96s7CQEYzs4spAQQoosLli2FZ985gQ3JCwUISJZediBmGyya1tAFAkhISTEwUjcuHCBkyWkGNZYXBBcECeHxASwCDZh/Vg/dof591bt9vR0T7+qur+q/v+k3qmene3pnfn1N19/VTXdU6QQi4uLv9PNOEcGSxOvYV/fgiv6NmKwX8d0k4yBomeQELspoauAg2BTfoqfDkXXeCR2HpviU/otOi16Qu6j+jYkTMrTefE7J3oH5B5HFO27KHxnRI8J3jW50+hcehO06DG5fc65XdOJKB/km8/oXYmgo3xQolNwayzjR0jCByE6BXdGMMJ7LToFb4xl32X3VnQtOQVvDq9PWr0TXQvOKkp7eCm8N7JowQGjuAy8Sme8EF1LTsHl4U10Fy06o7g3iI/uYkVnFPcO0dFdpOiU3GtERndRomvBASX3G3GyixGdUTw4RKUyIkSn5EEjIrq3Ljol7wSty96q6JS8U7Qqe2uiU/JO0prsrYhOyTtNK7I3KroWHFDybtO47I2JzihOEjRafpzQt02AobWEGBBkj8Y+5Z3SiOj6n2ntxJcQ5/IxZSEFcJ6zOxWdkpMSOJXdmeiUnFTAmexORJcm+cTExqlIv9+Plir0er1oAevr69FtFWzsCzDbsbEvoM52LONEduuiS5N8//796uTJk1H74sWL6vr161G7LDa2I2lfIPnCwoJeU+r8+fNBy2616iJNcltACiNWqOzdu1e3RGC97GhV9AGslXuCMLHTsCq7NdH1Tjmt4hBSFSuih5qykNaxFtVri07JiWOsyG4jojMvJ66pLXst0fWTMy8n4qksOlMW0jC1onqdiM6UhTRNZdkrie5LyjK/66mhjh6093yqfP04WXPGdubmn9BrxbC1L594es/IdnY/+bReK8bs3K6hbQCs4/5QKS2rpJQFXeHjSL6ZBnSbl8HGdnzYF5C3narDFixTeohAFdExIKLlaN4bSL5v7BtG3IADQYDs/YGHpbKRUg+WkrJQ8vbA6573SdoAPe1iYcrm6AJOQHuUnIBSJ6aFo7PeaOu5eXJ4KfjT+0q9++uf6bVh8Pj5uZmofe/+Q7W6ej9ql2X79m1qx7Zptd5XauX2HbWORkkmJnpqbuesGtzU2pepqSk1N7s9aq/cWVWPHj2K2mWZ2zmjpiYn1KO19cH/dFffO8qXvvw1deApvaJZWjo3+Fl9PL0lCufqhUSXIjmIj8U2LC0t6RZxwtSseus7p/XKBoLGrxeSvU4dnRBvyBVdUjQnJIVCuTojOukEY0VnNCeekBvVGdFJJ8gTvbG6OcqAeUtaxYW0A0q8ae9R2tIQY6N6ZnmxybSlrsAsL7plcvsu9ca3Tum1cjRchswsNY473BqL5nWjdL83pVvEBbOzO3VLPJnOpoquo3ljY1rKjuAbob+mG8QFq6uruiWezDEwqTI3mbYYigwUyor8TF0ck9IzCooEqA8//LDpHtTU9CVLdAFDcUfpT2xTiwvf1mtbUHTHpIguZLhuFiOyj6QuOpqLkxz01u/XT3OIFRCpfSItR+dcUBIcQ6JLjuaElGCkpj6uvEhIMCRFZ9pCgoQRnYTKUPqyKTrzcxIyjOikE8RFZ35OQmPT6Uh0pi0kUDbHvjB1IZ3AK9Enp2c48UIIHlzsa4goXRmE91YHcWEWSpEXjqMXW2J6p3rr7Kt6ZQuhoxeTRN/TaHKYVidA151htLh0fnCUtvpiBs2O+T3qtZde0GvlEPJFR8uB5Og8j3bJZHPzPp0hJqIXgalLO/Qee1y9+frLem0LT1IXsCxC9KLgigynXxmdpEvRHePfxIskUeriTUfRnZVbnHghhBAmXhASGkeQurRaWixLWoWmbuoyM79HPfe5A3qtHFevXtWtLQ4fPqxb2fz9X7fUf25+rO5+/E99TzH2P/tZte+TxS6q9fs//DGaflgb2V8bXQhEdJYsBpw4cSJabJG3vZNf/Yo689IL0UGBA60okNzmfnYFRPTWL1tQBlcRHdJd/Pkv1PX3/qrvrQ7khYyL57+fGVHxnE/sno+EB0WfG9vGp4GN/SxMIBGdtABSFsj6zg9/Gq1DeHydxzjwe0bzalD0loHwiObgmU8/G93mgdyelIOiC8CIm3eSOTu3W7dIWSi6ABDVL126FKUleekLuLNyU7dIUSi6R+DklVSDonsGIr+V2njHoOikE3glOgZ11Rm3LhVTNsyL1qazCDV49JCiph5fcH+RHN8Gvs0wmjx+/PiibrcGOoHm5+dzlxe/+Q39F8NcvnxZt6oxvX1OHfniF9Sh5z6vHjx4EO3PuKU3vVP9778f6b8eBY85ePCgeve3y6pX4CIFzxz4TPTcv/zVb9TD+7f1vaOY7WJf/33jH/reDXAA4P7jzx9V1z64MXb/ytKb2qGePzY8rOHQoUPq2rVrqe9TfLl9+7bq99vvkxTRM4o3sN4Mowuqp6pf9cL0jAJE1TzyeiYRXSHeuJ5RAyKz6R3NezweC9LGyCCSow5ftqe1CDt37VWvnvq6XiuHlB7UQHJ0O8cq5MAgrbylrkCQEksZyQGeF0vaQDD8LX5nOp+K9LQWZc2jrv4sxET0IriaYeRqrAtI+4QwvwP4vbVRhhrz/BhekHZQlMbvydERIiI6ZqoUWS589x39F34DuXFQQUR8QtiUHPz5L3+LbqsOPR4hJcc2M4zyFikDv7xKXdYe3vVqhhHSkWTaY5asFMQGTfSccoYRIQKh6KQTUPQA4SjHUSh6gJjBX6j3kw0oemCgdm5q8x+8/150Syh6UEByc2VtlC9tly19hqJ7wrhBW2aQV1xyGx1fIUHRPQAio6cTvbeQGdLHF9yPdMV0RFHyUSi6pshgrjLY3B46ltD5hJ5UiJwk3stKyVPpQ/T2x1C2DESyKYnp/bSZI2Nb2E/so9m+WXCfq17WUIDoVzaa8okqCgFOvPAR7y7tIuVro4uMYHQ1epHkkPJNXcCj0Ysyvh+9/sSLc6rHDMwZ0zNPqrNnXtRr5eClXWzSm9QN4oJt25qZh+qSMEQvMC+TVOfevbu65S8iLr8IcAnGPHAClJbiMEd3TEaOjrSkCC2nLtHlF41drVde8GLkLZixwku7yMDk3kWWloncDiN1ISQHik46QST6IIc5NrhhfY6EBvJzuD0U0b3pISWkIJtOM3UhnYCik1DZTFvApuj6zuWNNULCghGdhMrQOSdFJ51gSHSmLyQQhvJzwIhOQmSkVO6V6KFe2sVHBM8wGonmIHXE4uCBjU7GaPv70cl4eo89rt58/WW9toXQGUbLokWvN8Oo3qVdyHh2zO9Rr+lL35SlhRlGqaKnpi76gRz7QnwjNW0BmZMtmozqTF2E48+lXVKjORAhelFwMnr6lVN6bQuK7piUGUaQHBNhBIFonllcyfyFPjJE1dTvrNziDCMhCLy0y0hJMQ7r6KQTjBVdYlQnJIXM3NzAiE46Qa7ojOpEOLnRHHgX0dNOgvrZxSNigYnJKd3yl8KGDI4aEeVGfNHRwsKCXtvC9vebky3il3Q3CCnpFormwDvRQd0hA6QeQmroY+vmSQo/UB85zNWJlBr62Lp5ktLJ7UB49Oe2nhQzqjeP6azzLZqDKqILGhrQGwi/T7dHyToQyvau2tiOD/sCsrbTwnDbcRTOzQ2VIrMs2bOZnJ5Rb5w9o9c2+NGPf6JufnRDrxUj7dPj3IW3VX9tVa/lY2tf0sb7fO/tH6gHqyt6LZ/49Ujj4IJgHlybtLTkwLvyYhnWHt4dilBolxULJHNSbKeM5MDWviTH+6BdRnIAmePbAFj3QPLMYbh5VBJdPxlPTEnTlDoBjVM5olN20jCVUhZD0KkLCYbKKYuhluiM6qQhKqcshtoRnbITx9RKWQxWUhfKThxhRXLAHJ1IpXZeHsea6CFH9X4/vG/+SPYNCBm/Eqd2Xh7H+piVgfCiek2T1y+t2o0d3w7EryK/i30BNrYjqHsfWEtZDE4GZ0mTnXiFdcmBs1GIlJ1UwInkwJnogLKTEjiTHDgVHVB2UgCnkgPnogPKTsbgXHIwfPpOSLNYrZWPoxHR9T+DGju/iprEuaJvndNI6hKHaQwZEHUsNhXNQeOiA8reaRrJyZO0Ijqg7J2kFclBa6IDyt4pWpMctCo6oOydoFXJQeuiA8oeNK1LDkSIDrTsRwaLmH0itREhORAnFaN7EDRePsxDZPSk7F4jJorHEZsmaNmZyviFSMmBeIkY3b1AXKqSxItoyeguGrFRPI5X4jC6i0J8FI/jXYRkdG8djEC94ovgBm9lofCt4EWakob3kmjhmc64xas0JY0goqGWHVB4u3gvuCGoj30Kb41gBDcEmd/GhGcOX47gBDcEL4GWnsJnE1VR0AhRcENn3nxG+RGCjd5pdPIN73CUj+QGXRHc0OnIlojyIMTXo7Nyx+FHeIyE+L6+Nps5N+iy3HEoegYx6YFk8Sl2ASh6QRLiA5PugCZexyGhDRS7CEr9HyFdgaRoerEgAAAAAElFTkSuQmCC;" parent="1" vertex="1">
          <mxGeometry x="439" y="250" width="26" height="26" as="geometry" />
        </mxCell>
      </root>
    </mxGraphModel>
  </diagram>
</mxfile>
